# xmcd
# 
# Track frame offsets:
#     150
#     26472
#     48575
#     68650
#     85583
#     111890
#     133992
#     154068
# 
# Disc length: 2279
# 
# Revision: 0
# Processed by: cddbd v1.5.2PL0 Copyright (c) Steve Scherf et al.
# Submitted via: fre:ac v1.0.17
# 
DISCID=6308e508
DTITLE=AKB48 - LOVE TRIP - しあわせを分けなさい [Type B]
DYEAR=2016
DGENRE=JPop
TTITLE0=LOVE TRIP
TTITLE1=しあわせを分けなさい
TTITLE2=光と影の日々
TTITLE3=進化してねえじゃん (ネクストガールズ)
TTITLE4=LOVE TRIP off vocal ver.
TTITLE5=しあわせを分けなさい off vocal ver.
TTITLE6=光と影の日々 off vocal ver.
TTITLE7=進化してねえじゃん off vocal ver.
EXTD=
EXTT0=
EXTT1=
EXTT2=
EXTT3=
EXTT4=
EXTT5=
EXTT6=
EXTT7=
PLAYORDER=
